<svg xmlns="http://www.w3.org/2000/svg" width="512" height="512" viewBox="0 0 512 512"><title>Transparent-Icon-</title><path d="M245.2,248.49l-5.25.89-.42-.6c4.12-2.89,7.29-6.41,8.31-11.67-4.19,2.52-8.3,3.61-12.82.67,9.21-2.58,10.41-3.43,14.79-10.39,3.52,2.09,8,2.19,10.73,6.15,2.24,3.21,5.19,5.93,7.9,8.8a36.87,36.87,0,0,1,6.46,10.42A5.66,5.66,0,0,1,275,254a70.26,70.26,0,0,1-19-12,43.07,43.07,0,0,1-1.21,4.17c-1.48,3.64-1.42,7.28-.83,11.13.64,4.18.68,8.46.91,12.71.12,2.06.39,2.6,2.4,2.56,10.44-.17,20.94.45,31.25-1.79,2.18-.48,4.27-1.35,6.43-1.94a3,3,0,0,1,2.1.08q5.63,3.48,11.11,7.17a3.83,3.83,0,0,1,1.71,4.24A23.76,23.76,0,0,0,311,293.6c.5,1.36.42,2.91.81,4.32.18.64.87,1.59,1.31,1.58a2.69,2.69,0,0,0,1.95-1.18,4.92,4.92,0,0,0,.28-2.45c0-1.15-.28-2.31-.24-3.46.06-2.39,1.8-3.27,3.81-1.93a10.71,10.71,0,0,1,4.44,6.85c.41,1.8.55,3.67.93,5.49a18.07,18.07,0,0,0,1.18,3.74c.23.49,1.13,1.1,1.52,1a2.13,2.13,0,0,0,1.07-1.54,35.17,35.17,0,0,0,.08-3.71,14.28,14.28,0,0,1,.28-1.64c.42.65.63.94.8,1.26.52.95,1.2,1.81,2.36,1.28s.78-1.59.45-2.45c-.67-1.82-1.43-3.6-2.16-5.39-.8-2-1.57-4-2.43-6a14.62,14.62,0,0,0-1.76-3.23c-8.12-10.27-16.38-20.42-24.4-30.76-4.92-6.34-10.44-11.83-17.79-15.3a6.69,6.69,0,0,1-2.47-2.32c-3.81-5.64-7.62-11.29-11.22-17.06a14.61,14.61,0,0,1-1.59-5.24,26.91,26.91,0,0,0-3.2-9.38c-2.19-3.72-5.56-5.94-9.42-7.59a1.64,1.64,0,0,0-2.41,1c-1.13,2.38-2.21,4.77-3.29,7.17-.3.68-.52,1.41-.77,2.11l-.54,0a17,17,0,0,1-.38-2,37,37,0,0,1,1.66-14c.66-2.16.59-2.34-1.29-3.59s-3.76-2.41-5.93-3.81c-4.48,7.05-10.93,9.45-18.9,8.33,6.75-3,12.69-6.61,13.86-14.94l4.27.75c3,.52,4-.3,4.55-3.26a51.54,51.54,0,0,1,1.92-6.62,2.27,2.27,0,0,1,1.19-1.31c1.57-.55,1.44-1.49,1-2.74-.58-1.6-1-3.27-1.53-4.87a2.26,2.26,0,0,1,.68-2.88,3.07,3.07,0,0,0,1-3.75c-.05-.15-.05-.31-.1-.45-1.2-3.57-.72-6.33,2.85-8.54,2.32-1.43,3.7-4,4.57-7.25l-5.16,2c.4-1.54.69-2.68,1-3.82l-.38-.39A17.94,17.94,0,0,1,243,140.17c2-2.48,4.64-3.74,5.76-6.44l-10.4,1.42c.66-1.22,1-1.92,1.61-3-5,1.47-9.74,2.51-14.21,4.3-6.19,2.49-8.54,8.43-8.28,15a35.4,35.4,0,0,0,2.79,12.41,8.67,8.67,0,0,1-.12,7.4c-2,4.26-4,8.51-6.21,12.7-1.21-4.37.36-8.38,1.78-12.59-6.09,0-11.55,1.62-17.28,4.41a19.33,19.33,0,0,1,5.44-7.21c-1.34-1.63-3.16-1.74-4.86-2.05a20.55,20.55,0,0,0-15.76,3.07,3.21,3.21,0,0,1-2.16.23q-6.27-1.12-12.52-2.45a4.6,4.6,0,0,1-1.84-1.18c-1.43-1.29-2.63-2.93-4.24-3.9-9.59-5.84-19.24-11.59-29.85-15.47a2.82,2.82,0,0,1-1.05-.48c-1.9-2-4.39-1.92-6.73-1.58a41.27,41.27,0,0,0-18.06,6.88c-1.74,1.23-3.5,2.49-6,2.66a5.12,5.12,0,0,1,.46-1.16c6.84-9.08,16.24-13.4,27.32-14.27,4.15-.32,8.15.93,11.94,2.59,6.24,2.73,12.42,5.6,18.63,8.41,1,.44,2,.84,3.29,1.42.12-1.2.27-2.08.28-3,.05-8.68.05-17.36.11-26q.06-7.32.23-14.64c.08-3.66,2.14-5.68,5.86-5.71,4.49,0,9,0,13.48,0q44.76-.07,89.5-.16c6.12,0,12.25,0,18.36.3,26.45,1.5,50.33,9.84,70.71,27.15a115.25,115.25,0,0,1,38.78,64.28,109,109,0,0,1,2.6,29.54c-1,19.25-5.8,37.48-15.61,54.15-13.92,23.68-33.85,40.21-59.91,49.19a127.32,127.32,0,0,1-29,6.09c-13.06,1.3-26.16.69-39.24.79-7.13.06-14.26,0-21.39,0H233v3.51q0,47.19,0,94.38a28.86,28.86,0,0,1-.16,3.48c-.39,3-2.24,4.65-5.3,4.75-1.71.06-3.41,0-5.12,0l-51.84,0c-.93,0-1.86,0-2.79,0a4.89,4.89,0,0,1-4.6-3.9,7.49,7.49,0,0,1-.13-1.16c-.37-5.79-.38-5.8,3.85-9.82a31.94,31.94,0,0,0,9.43-16.74,22.3,22.3,0,0,1,3.74-8.41c3-4.21,3.83-9,3.29-14.52l-8.85,10-.59-.27c.15-2,.29-4,.46-6.06a7.53,7.53,0,0,0,.23-1.6c-.55-3.29,1.17-5.5,3.29-7.71,5.31-5.54,10.5-11.19,15.67-16.85,4.95-5.42,9.31-11.22,11.05-18.55a50,50,0,0,0,1.22-6.37c.32-3.38,2.35-5.84,4.25-8.35.35-.47,1.53-.49,2.3-.44,2.39.17,4.77.64,7.15.64a19.35,19.35,0,0,0,5.47-.87c4.71-1.37,7.62-4.32,8.33-9.43,2-14.08,5.9-27.66,10.42-41.1a31.59,31.59,0,0,0,2.06-11.13,16.82,16.82,0,0,0-.56-5c-1.43-4-.63-8-.21-11.94C245.09,249.41,245.14,249,245.2,248.49Zm70.29,11.7a2.49,2.49,0,0,0,.64-.17c.38-.27.75-.55,1.11-.85a55.43,55.43,0,0,0,14.3-17.51c8.23-15.93,9.17-32.28,1.4-48.49-9.58-20-26.65-29.53-48.08-31.63-8.45-.83-17-.42-25.54-.54-2.25,0-2.52.19-2.44,2.33a52.49,52.49,0,0,1-2.5,17.61,2.65,2.65,0,0,0,.81,3.05c1.87,1.94,3.49,4.11,5.26,6.13a5.51,5.51,0,0,0,1.77,1.38c9.09,4.12,13.42,11.54,14.6,21.1a11.39,11.39,0,0,0,2.07,5.31c3.15,4.51,6.11,9.13,9.25,13.64a9.91,9.91,0,0,0,2.67,2.4c2.38,1.57,5,2.85,7.25,4.56,5.66,4.24,9.78,9.87,13.57,15.76C312.92,256.27,314.23,258.26,315.49,260.19Z" fill="#09090b"/><path d="M153.27,288.2c6.4,0,10.68,2.66,13.43,8.39a9.65,9.65,0,0,1-1.79-.36c-4.14-1.82-8.43-1.79-12.75-.9a3,3,0,0,0-2,1.26c-2,5-3.84,10-2.66,15.54,1.07,5,3.59,6.84,8.72,6.79a36.1,36.1,0,0,0,18.11-5.15c4.21-2.47,8.25-5.21,12.37-7.82l2.46-1.52c0,.92-.07,1.41-.08,1.9-.05,2.55-.25,5.11-.07,7.65a6.86,6.86,0,0,0,1.38,3.84c1.37,1.54,1.19,3,.74,4.7A33.45,33.45,0,0,1,183.63,337a29,29,0,0,0-7.31,15c-1.46,8.52-3.7,16.79-8.46,24.17-.37.58-.77,1.16-1.11,1.76a3.46,3.46,0,0,1-3.91,2c-3.47-.44-5.4,1.35-6,5-.3,1.91-.52,3.83-.73,5.75-.46,4.25-2.23,8-4.22,11.72-1.7,3.19-3.07,6.57-4.5,9.9a8.83,8.83,0,0,0-.46,2.73c-.39,5.09,3.19,6.78,7,6.19a20.33,20.33,0,0,0,7.91-3.2,4,4,0,0,1,1.8-.72,4.41,4.41,0,0,1-.62,1.29c-2.47,2.43-4.78,5.1-7.54,7.16a9.82,9.82,0,0,1-12,.38c-4.05-2.69-5.41-6.85-4.94-11.56s2.44-8.77,4.66-12.78c.71-1.29,1.41-2.59,2.17-3.85a20.48,20.48,0,0,0,2.75-9.46c.32-5.05,1.48-9.91,5.62-13.3a27,27,0,0,1,6-3.46c2.86-1.29,2.94-1.17,3-4.4,0-4.19,0-8.37.05-12.55,0-8,.13-16,.17-23.94,0-1.07-.13-2.13-.22-3.48-1.32,0-2.46,0-3.59,0-2.4-.09-4.8-.08-7.18-.36-8-.92-12.46-8-13.6-13.75-1-4.95,0-9.71,1.23-14.43,3.45-13.13,10.43-24.23,19.78-33.94a15.87,15.87,0,0,1,1.64-1.64c1.57-1.21,1.89-2.74,1.87-4.68-.13-11.78-.15-23.56-.13-35.33,0-12,.12-24,.19-36,0-2.3,0-4.6,0-7a5.75,5.75,0,0,1,1.11.08c8.8,2.43,17.6,4.88,26.4,7.29,3.16.87,3,1.21,3.22,3.65.48,6.56,1.11,13.11,1.72,19.66.53,5.62,1.12,11.24,1.66,16.86.11,1.13.13,2.27.2,3.4l-.45.13L195.41,229c-.3,2.64-.64,5-.83,7.33-.22,2.86-.4,5.73-.45,8.59a3.19,3.19,0,0,1-1.63,2.77c-14,10.25-27,21.53-36.73,36.15C155,285.06,154.31,286.37,153.27,288.2Z" fill="#09090b"/><path d="M100.64,181.66c-.57-2.33-1.3-4.68-1.06-7.16.72-7.21,3.42-13.44,9.2-18.09,2.5-2,2.83-2.15,5.47-.38,4.56,3.06,9,6.24,13.55,9.36,1.52,1.05,3.06,2.09,4.62,3.07.83.51,1.7,1,1.37,2.13s-1.47.93-2.34.81a31.61,31.61,0,0,0-16.18,2,44.21,44.21,0,0,0-12.85,7.31c-.35.3-.7.61-1.08.88C101.24,181.67,101.05,181.63,100.64,181.66Z" fill="#27272a"/><path d="M132.22,175.45A25.56,25.56,0,0,1,129,185a38.76,38.76,0,0,1-12.46,13.2,2.62,2.62,0,0,1-3.15.11,25.28,25.28,0,0,1-9.19-8.63c-1.6-2.6-1.69-2.84.68-4.79a39.93,39.93,0,0,1,14.57-7.9,51,51,0,0,1,7-1.49A45.44,45.44,0,0,1,132.22,175.45Z" fill="#27272a"/><path d="M136.63,177.37a8.52,8.52,0,0,1,6,4,13.25,13.25,0,0,1,2.41,8.78,5.35,5.35,0,0,1-1.29,3.12c-5.87,5.78-12.79,8.85-21.21,7.63-.06,0-.12-.1-.46-.37A41,41,0,0,0,136.63,177.37Z" fill="#27272a"/><path d="M138.68,154.25c7.91,4.34,15.54,16.25,10.84,30.07-.19-.12-.47-.2-.51-.35-1.2-4.72-4.53-7.58-8.59-9.79-2.28-1.25-2.36-1.27-1.83-3.73A41.62,41.62,0,0,0,138.68,154.25Z" fill="#27272a"/><path d="M134.74,165c-6.26-3.68-10.94-8.79-16.83-12.24l.09-.56a21.35,21.35,0,0,1,2.72-.61c3-.27,6-.54,8.94-.66a3.82,3.82,0,0,1,3.87,2.75A22.31,22.31,0,0,1,134.74,165Z" fill="#27272a"/></svg>