<?xml version="1.0" encoding="utf-8"?>
<!-- Generator: Adobe Illustrator 23.0.1, SVG Export Plug-In . SVG Version: 6.00 Build 0)  -->
<svg version="1.1" id="Layer_1" xmlns="http://www.w3.org/2000/svg" xmlns:xlink="http://www.w3.org/1999/xlink" x="0px" y="0px"
	 viewBox="0 0 512 512" style="enable-background:new 0 0 512 512;" xml:space="preserve">
<style type="text/css">
	.st0{fill:#CEB888;}
	.st1{fill:#09090B;}
	.st2{fill:#27272A;}
</style>
<g>
	<path class="st0" d="M512,266.6c0,3.4,0,6.7,0,10.1c0,38.7,0,77.4,0,116.1c0,6.5-0.6,13-1.8,19.4c-5.3,29.2-19.3,53.3-42.1,72.2
		c-21.5,17.9-46.3,27.1-74.3,27.6c-0.8,0-1.6-0.1-2.4-0.1H121.6c-0.9,0-1.8,0.1-2.7,0.1c-19.7,0-38.3-4.9-55.5-14.5
		c-32.3-18-52.6-45.2-60.7-81.4C1.3,410.5,1.1,404.7,0,399V112.3c0.8-5.2,1.2-10.4,2.3-15.4c7.3-34,25.4-60.5,54.8-79.1
		C73.9,7.2,92.2,1.1,112,0c57.2,0,114.5,0,171.7,0c38.7,0,77.4,0,116.1,0c2.3-0.1,4.5,0.3,6.8,0.6c32.7,4.4,59.3,19.7,79.7,45.5
		c16.3,20.6,25.3,44.2,25.4,70.4C512,166.5,512,216.5,512,266.6z"/>
</g>
<g>
	<path class="st1" d="M245.2,248.5c-1.9,0.3-3.6,0.6-5.3,0.9c-0.1-0.2-0.3-0.4-0.4-0.6c4.1-2.9,7.3-6.4,8.3-11.7
		c-4.2,2.5-8.3,3.6-12.8,0.7c9.2-2.6,10.4-3.4,14.8-10.4c3.5,2.1,8,2.2,10.7,6.1c2.2,3.2,5.2,5.9,7.9,8.8c2.9,3,4.8,6.7,6.5,10.4
		c0.1,0.2,0.1,0.6,0.1,1.2c-7-3.1-13.2-6.8-19-12c-0.5,1.6-0.7,2.9-1.2,4.2c-1.5,3.6-1.4,7.3-0.8,11.1c0.6,4.2,0.7,8.5,0.9,12.7
		c0.1,2.1,0.4,2.6,2.4,2.6c10.4-0.2,20.9,0.4,31.2-1.8c2.2-0.5,4.3-1.4,6.4-1.9c0.7-0.2,1.6-0.2,2.1,0.1c3.7,2.3,7.5,4.7,11.1,7.2
		c1.4,1,2.1,2.4,1.7,4.2c-0.9,4.5-0.5,8.9,1.1,13.2c0.5,1.4,0.4,2.9,0.8,4.3c0.2,0.6,0.9,1.6,1.3,1.6c0.7,0,1.6-0.6,1.9-1.2
		c0.4-0.7,0.3-1.6,0.3-2.4c0-1.2-0.3-2.3-0.2-3.5c0.1-2.4,1.8-3.3,3.8-1.9c2.4,1.6,3.8,4,4.4,6.8c0.4,1.8,0.5,3.7,0.9,5.5
		c0.3,1.3,0.6,2.6,1.2,3.7c0.2,0.5,1.1,1.1,1.5,1c0.5-0.1,1-1,1.1-1.5c0.2-1.2,0-2.5,0.1-3.7c0-0.4,0.1-0.8,0.3-1.6
		c0.4,0.7,0.6,0.9,0.8,1.3c0.5,0.9,1.2,1.8,2.4,1.3c1.1-0.5,0.8-1.6,0.4-2.5c-0.7-1.8-1.4-3.6-2.2-5.4c-0.8-2-1.6-4-2.4-6
		c-0.5-1.1-1-2.3-1.8-3.2c-8.1-10.3-16.4-20.4-24.4-30.8c-4.9-6.3-10.4-11.8-17.8-15.3c-1-0.5-1.8-1.4-2.5-2.3
		c-3.8-5.6-7.6-11.3-11.2-17.1c-0.9-1.5-1.3-3.4-1.6-5.2c-0.6-3.3-1.5-6.5-3.2-9.4c-2.2-3.7-5.6-5.9-9.4-7.6c-1.3-0.5-1.9,0-2.4,1
		c-1.1,2.4-2.2,4.8-3.3,7.2c-0.3,0.7-0.5,1.4-0.8,2.1c-0.2,0-0.4,0-0.5,0c-0.1-0.7-0.3-1.3-0.4-2c-0.4-4.8,0.3-9.4,1.7-14
		c0.7-2.2,0.6-2.3-1.3-3.6c-1.9-1.2-3.8-2.4-5.9-3.8c-4.5,7-10.9,9.4-18.9,8.3c6.7-3,12.7-6.6,13.9-14.9c1.6,0.3,2.9,0.5,4.3,0.7
		c3,0.5,4-0.3,4.6-3.3c0.4-2.2,1.2-4.4,1.9-6.6c0.2-0.5,0.7-1.1,1.2-1.3c1.6-0.5,1.4-1.5,1-2.7c-0.6-1.6-1-3.3-1.5-4.9
		c-0.4-1.2-0.3-2.1,0.7-2.9c1.2-1,1.5-2.3,1-3.7c-0.1-0.1-0.1-0.3-0.1-0.5c-1.2-3.6-0.7-6.3,2.9-8.5c2.3-1.4,3.7-4,4.6-7.2
		c-1.9,0.7-3.4,1.3-5.2,2c0.4-1.5,0.7-2.7,1-3.8c-0.1-0.1-0.3-0.3-0.4-0.4c-2.8,2.6-6.1,4-10.4,4.5c2-2.5,4.6-3.7,5.8-6.4
		c-3.4,0.5-6.7,0.9-10.4,1.4c0.7-1.2,1-1.9,1.6-3c-5,1.5-9.7,2.5-14.2,4.3c-6.2,2.5-8.5,8.4-8.3,15c0.2,4.3,1.1,8.5,2.8,12.4
		c1.1,2.5,1,5-0.1,7.4c-2,4.3-4,8.5-6.2,12.7c-1.2-4.4,0.4-8.4,1.8-12.6c-6.1,0-11.6,1.6-17.3,4.4c1.3-3.3,3.3-5.2,5.4-7.2
		c-1.3-1.6-3.2-1.7-4.9-2c-5.6-1-10.9-0.2-15.8,3.1c-0.5,0.4-1.5,0.4-2.2,0.2c-4.2-0.8-8.4-1.6-12.5-2.5c-0.7-0.1-1.3-0.7-1.8-1.2
		c-1.4-1.3-2.6-2.9-4.2-3.9c-9.6-5.8-19.2-11.6-29.9-15.5c-0.4-0.1-0.8-0.2-1.1-0.5c-1.9-2-4.4-1.9-6.7-1.6c-6.5,1-12.6,3-18.1,6.9
		c-1.7,1.2-3.5,2.5-6,2.7c0.2-0.5,0.3-0.9,0.5-1.2c6.8-9.1,16.2-13.4,27.3-14.3c4.1-0.3,8.2,0.9,11.9,2.6c6.2,2.7,12.4,5.6,18.6,8.4
		c1,0.4,2,0.8,3.3,1.4c0.1-1.2,0.3-2.1,0.3-3c0.1-8.7,0.1-17.4,0.1-26c0-4.9,0.1-9.8,0.2-14.6c0.1-3.7,2.1-5.7,5.9-5.7
		c4.5,0,9,0,13.5,0c29.8-0.1,59.7-0.1,89.5-0.2c6.1,0,12.3,0,18.4,0.3c26.4,1.5,50.3,9.8,70.7,27.1c20.1,17.1,33,38.5,38.8,64.3
		c2.2,9.7,3.1,19.6,2.6,29.5c-1,19.3-5.8,37.5-15.6,54.2c-13.9,23.7-33.9,40.2-59.9,49.2c-9.4,3.2-19.1,5.1-29,6.1
		c-13.1,1.3-26.2,0.7-39.2,0.8c-7.1,0.1-14.3,0-21.4,0c-1.3,0-2.6,0-4.2,0c0,1.4,0,2.5,0,3.5c0,31.5,0,62.9,0,94.4
		c0,1.2,0,2.3-0.2,3.5c-0.4,3-2.2,4.7-5.3,4.8c-1.7,0.1-3.4,0-5.1,0c-17.3,0-34.6,0-51.8,0c-0.9,0-1.9,0-2.8,0
		c-2.3-0.2-4.1-1.7-4.6-3.9c-0.1-0.4-0.1-0.8-0.1-1.2c-0.4-5.8-0.4-5.8,3.8-9.8c4.9-4.6,8-10.2,9.4-16.7c0.7-3.1,1.9-5.8,3.7-8.4
		c3-4.2,3.8-9,3.3-14.5c-3.1,3.5-6,6.8-8.8,10c-0.2-0.1-0.4-0.2-0.6-0.3c0.2-2,0.3-4,0.5-6.1c0-0.5,0.3-1.1,0.2-1.6
		c-0.5-3.3,1.2-5.5,3.3-7.7c5.3-5.5,10.5-11.2,15.7-16.8c4.9-5.4,9.3-11.2,11-18.6c0.5-2.1,1-4.2,1.2-6.4c0.3-3.4,2.4-5.8,4.3-8.4
		c0.4-0.5,1.5-0.5,2.3-0.4c2.4,0.2,4.8,0.6,7.1,0.6c1.8,0,3.7-0.4,5.5-0.9c4.7-1.4,7.6-4.3,8.3-9.4c2-14.1,5.9-27.7,10.4-41.1
		c1.2-3.6,2.2-7.3,2.1-11.1c-0.1-1.7,0-3.5-0.6-5c-1.4-4-0.6-8-0.2-11.9C245.1,249.4,245.1,249,245.2,248.5z M315.5,260.2
		c0.4-0.1,0.5-0.1,0.6-0.2c0.4-0.3,0.7-0.6,1.1-0.8c6-4.9,10.8-10.7,14.3-17.5c8.2-15.9,9.2-32.3,1.4-48.5
		c-9.6-20-26.7-29.5-48.1-31.6c-8.4-0.8-17-0.4-25.5-0.5c-2.3,0-2.5,0.2-2.4,2.3c0.2,6-0.7,11.9-2.5,17.6c-0.4,1.3-0.1,2.1,0.8,3
		c1.9,1.9,3.5,4.1,5.3,6.1c0.5,0.6,1.1,1.1,1.8,1.4c9.1,4.1,13.4,11.5,14.6,21.1c0.2,2,0.9,3.7,2.1,5.3c3.1,4.5,6.1,9.1,9.3,13.6
		c0.7,1,1.7,1.7,2.7,2.4c2.4,1.6,5,2.9,7.2,4.6c5.7,4.2,9.8,9.9,13.6,15.8C312.9,256.3,314.2,258.3,315.5,260.2z"/>
	<path class="st1" d="M153.3,288.2c6.4,0,10.7,2.7,13.4,8.4c-0.9-0.2-1.4-0.2-1.8-0.4c-4.1-1.8-8.4-1.8-12.8-0.9
		c-0.7,0.2-1.8,0.7-2,1.3c-2,5-3.8,10-2.7,15.5c1.1,5,3.6,6.8,8.7,6.8c6.5-0.1,12.5-1.9,18.1-5.2c4.2-2.5,8.2-5.2,12.4-7.8
		c0.7-0.4,1.4-0.9,2.5-1.5c0,0.9-0.1,1.4-0.1,1.9c0,2.6-0.2,5.1-0.1,7.6c0.1,1.3,0.5,2.9,1.4,3.8c1.4,1.5,1.2,3,0.7,4.7
		c-1.4,5.4-3.6,10.3-7.5,14.5c-3.9,4.3-6.3,9.3-7.3,15c-1.5,8.5-3.7,16.8-8.5,24.2c-0.4,0.6-0.8,1.2-1.1,1.8c-0.9,1.5-1.9,2.3-3.9,2
		c-3.5-0.4-5.4,1.4-6,5c-0.3,1.9-0.5,3.8-0.7,5.8c-0.5,4.3-2.2,8-4.2,11.7c-1.7,3.2-3.1,6.6-4.5,9.9c-0.4,0.8-0.4,1.8-0.5,2.7
		c-0.4,5.1,3.2,6.8,7,6.2c2.9-0.4,5.5-1.6,7.9-3.2c0.5-0.3,1-0.6,1.8-0.7c-0.2,0.4-0.3,1-0.6,1.3c-2.5,2.4-4.8,5.1-7.5,7.2
		c-3.7,2.8-8,3-12,0.4c-4-2.7-5.4-6.8-4.9-11.6c0.5-4.6,2.4-8.8,4.7-12.8c0.7-1.3,1.4-2.6,2.2-3.8c1.7-2.9,2.5-6.1,2.8-9.5
		c0.3-5,1.5-9.9,5.6-13.3c1.8-1.4,3.9-2.5,6-3.5c2.9-1.3,2.9-1.2,3-4.4c0-4.2,0-8.4,0-12.6c0.1-8,0.1-16,0.2-23.9
		c0-1.1-0.1-2.1-0.2-3.5c-1.3,0-2.5,0-3.6,0c-2.4-0.1-4.8-0.1-7.2-0.4c-8-0.9-12.5-8-13.6-13.7c-1-5,0-9.7,1.2-14.4
		c3.4-13.1,10.4-24.2,19.8-33.9c0.5-0.6,1-1.2,1.6-1.6c1.6-1.2,1.9-2.7,1.9-4.7c-0.1-11.8-0.2-23.6-0.1-35.3c0-12,0.1-24,0.2-36
		c0-2.3,0-4.6,0-7c0.4,0,0.8,0,1.1,0.1c8.8,2.4,17.6,4.9,26.4,7.3c3.2,0.9,3,1.2,3.2,3.6c0.5,6.6,1.1,13.1,1.7,19.7
		c0.5,5.6,1.1,11.2,1.7,16.9c0.1,1.1,0.1,2.3,0.2,3.4c-0.1,0-0.3,0.1-0.4,0.1c-0.4-0.7-0.8-1.3-1.4-2.3c-0.3,2.6-0.6,5-0.8,7.3
		c-0.2,2.9-0.4,5.7-0.5,8.6c0,1.3-0.6,2-1.6,2.8c-14,10.3-27,21.5-36.7,36.2C155,285.1,154.3,286.4,153.3,288.2z"/>
	<path class="st2" d="M100.6,181.7c-0.6-2.3-1.3-4.7-1.1-7.2c0.7-7.2,3.4-13.4,9.2-18.1c2.5-2,2.8-2.1,5.5-0.4
		c4.6,3.1,9,6.2,13.5,9.4c1.5,1.1,3.1,2.1,4.6,3.1c0.8,0.5,1.7,1,1.4,2.1c-0.4,1.3-1.5,0.9-2.3,0.8c-5.6-0.8-11,0-16.2,2
		c-4.6,1.8-9,4-12.8,7.3c-0.4,0.3-0.7,0.6-1.1,0.9C101.2,181.7,101,181.6,100.6,181.7z"/>
	<path class="st2" d="M132.2,175.4c-0.6,3.8-1.6,6.8-3.2,9.6c-3.1,5.3-7.2,9.8-12.5,13.2c-1.1,0.7-1.9,0.8-3.1,0.1
		c-3.8-2.2-6.9-4.9-9.2-8.6c-1.6-2.6-1.7-2.8,0.7-4.8c4.3-3.6,9.1-6.4,14.6-7.9c2.3-0.6,4.7-1.2,7-1.5
		C128.2,175.3,130.1,175.4,132.2,175.4z"/>
	<path class="st2" d="M136.6,177.4c2.9,0.5,4.7,2,6,4c1.8,2.6,2.7,5.6,2.4,8.8c-0.1,1.1-0.5,2.4-1.3,3.1c-5.9,5.8-12.8,8.8-21.2,7.6
		c-0.1,0-0.1-0.1-0.5-0.4C129.5,194.5,134.4,186.8,136.6,177.4z"/>
	<path class="st2" d="M138.7,154.2c7.9,4.3,15.5,16.3,10.8,30.1c-0.2-0.1-0.5-0.2-0.5-0.3c-1.2-4.7-4.5-7.6-8.6-9.8
		c-2.3-1.2-2.4-1.3-1.8-3.7C139.7,165.2,139.7,159.9,138.7,154.2z"/>
	<path class="st2" d="M134.7,165c-6.3-3.7-10.9-8.8-16.8-12.2c0-0.2,0.1-0.4,0.1-0.6c0.9-0.2,1.8-0.5,2.7-0.6c3-0.3,6-0.5,8.9-0.7
		c1.9-0.1,3.2,1,3.9,2.7C134.9,157.2,135.2,160.8,134.7,165z"/>
</g>
</svg>
